<?xml version="1.0" encoding="utf-8"?>
<svg xmlns="http://www.w3.org/2000/svg" id="Layer_1" version="1.1" viewBox="0 0 800 800">
  
  <defs>
    <style>
      .st0 {
        fill: #f50;
      }

      .st1 {
        fill: #191919;
      }
    </style>
  </defs>
  <g>
    <polygon class="st1" points="621.88 298.98 296.34 18.78 295.84 188.89 133.2 104.12 201.57 277.72 139.78 410.19 172.71 439.37 31.23 582.46 91.18 626.2 133.2 614.86 147.34 629.43 205.81 604.3 289.35 568.41 232.11 652.65 272.61 640.77 231.52 781.43 722.3 394.39 768.94 357.62 621.88 298.98"/>
    <path class="st0" d="M771.76,350.54l-145.88-58.17L301.32,13l-12.55-10.81-.05,16.56-.46,157.58-151.52-78.98-18.1-9.43,7.48,18.99,67.16,170.55-60.4,129.5-2.41,5.16,4.26,3.77,26.9,23.83L25.81,577.1l-6.23,6.3,7.16,5.22,59.94,43.74,2.95,2.15,3.53-.95,37.69-10.17,11.01,11.35,3.66,3.77,4.83-2.08,58.47-25.13,59.55-25.58-42.56,62.64-11.95,17.59,20.41-5.99,27.12-7.95-37.18,127.27-6.69,22.9,18.73-14.77,490.78-387.04,46.63-36.77,10.37-8.18-12.27-4.89ZM231.52,781.43l41.09-140.66-40.5,11.88,57.24-84.24-83.55,35.89-58.47,25.13-14.13-14.57-42.03,11.34-59.94-43.74,141.48-143.09-32.93-29.17,61.79-132.47-68.36-173.6,162.64,84.77.5-170.11,325.53,280.2,147.06,58.64-46.63,36.77-490.78,387.04Z"/>
  </g>
  <polygon class="st0" points="284.48 406.27 241.27 406.27 317.42 338.23 284.48 406.27"/>
  <path class="st0" d="M284.77,406.74h-44.75l78.87-70.47-34.12,70.47ZM242.52,405.79h41.66l31.76-65.6-73.42,65.6Z"/>
</svg>